<svg
  viewBox="0 0 254 79.374999"
  version="1.1"
  xmlns="http://www.w3.org/2000/svg"
  xmlns:svg="http://www.w3.org/2000/svg"
>
  <defs id="defs1040" />
  <g id="layer1">
    <g
      opacity="1"
      transform="matrix(0.26458333,0,0,0.26458333,128.77474,42.854622)"
      id="g9"
      style="display: block"
    >
      <path
        stroke-linecap="butt"
        stroke-linejoin="miter"
        fill-opacity="0"
        stroke-miterlimit="4"
        stroke="#000000"
        stroke-opacity="1"
        stroke-width="2"
        d="m 316.5,-100.5 c -44,0 -94.02299,8.871002 -115.5,36 -19,24 -17,63.5 -17,63.5 0,0 0.5,32.5 17.5,53 23.246,28.030998 69,35.5 114,35.5 45,0 85.685,-7.851997 113,-36.5 C 449,29.5 449,-6 449,-6 c 0,0 2.142,-36.904999 -20,-60.25 -23,-24.25 -68.5,-34.25 -112.5,-34.25 z"
        id="path7"
      />
    </g>
    <g
      opacity="1"
      id="g13"
      style="display: block"
      transform="matrix(0.26458333,0,0,0.26458333,145.24578,34.150787)"
    >
      <path
        stroke-linecap="butt"
        stroke-linejoin="miter"
        fill-opacity="0"
        stroke-miterlimit="4"
        stroke="#000000"
        stroke-opacity="1"
        stroke-width="2"
        d="m 252.81683,-9.6519383 c -13,0 -32.543,3.004002 -43.5,12.5 -7.5,6.5 -9.5,18.5000003 -9.5,27.0000003 0,8.5 2.302,18.351 12.5,26 8,6 23,9 40.5,9 17.5,0 34.20499,-2.844 43,-9 10,-7 12.5,-20 12.5,-27 0,-7 -0.24701,-16.747 -9.5,-26.0000003 -10,-10 -33,-12.5 -46,-12.5 z"
        id="path11"
      />
    </g>
    <g
      style="display: block"
      transform="matrix(0.26458333,0,0,0.26283113,128.40081,41.763866)"
      opacity="1"
      id="g25"
    >
      <g opacity="1" id="g19">
        <path
          stroke-linecap="butt"
          stroke-linejoin="miter"
          fill-opacity="0"
          stroke-miterlimit="4"
          stroke="#000000"
          stroke-opacity="1"
          stroke-width="2"
          d="m 112,-98.5 c 0,0 -107.2944002,0 -107.2944002,0 C 4.7055998,-98.5 -91.5,85 -91.5,85 c 0,0 86,0.5 86,0.5 0,0 15,-33 15,-33 0,0 90.5,-0.5 90.5,-0.5 0,0 14,33 14,33 0,0 86,0 86,0 0,0 -88,-183.5 -88,-183.5 z"
          id="path17"
        />
      </g>
      <g opacity="1" id="g23">
        <path
          stroke-linecap="butt"
          stroke-linejoin="miter"
          fill-opacity="0"
          stroke-miterlimit="4"
          stroke="#000000"
          stroke-opacity="1"
          stroke-width="2"
          d="m 54,-50.5 c 0,0 -24.5,56 -24.5,56 0,0 49.5,0 49.5,0 0,0 -25,-56 -25,-56 z"
          id="path21"
        />
      </g>
    </g>
    <g
      style="
        display: block;
        fill: none;
        fill-opacity: 1;
        stroke: #000000;
        stroke-width: 2;
        stroke-miterlimit: 4;
        stroke-dasharray: none;
        stroke-opacity: 1;
      "
      transform="matrix(0.26458333,0,0,0.26168379,127.21018,41.518561)"
      opacity="1"
      id="g37"
    >
      <g
        opacity="1"
        id="g35"
        style="
          fill: none;
          fill-opacity: 1;
          stroke: #000000;
          stroke-width: 2;
          stroke-miterlimit: 4;
          stroke-dasharray: none;
          stroke-opacity: 1;
        "
      >
        <path
          stroke-linecap="butt"
          stroke-linejoin="miter"
          fill-opacity="0"
          stroke-miterlimit="4"
          stroke-dasharray="0, 8"
          stroke-dashoffset="0"
          stroke="#000000"
          stroke-opacity="1"
          stroke-width="2"
          d="m -182.5,-98.5 c 0,0 0,182.5 0,182.5 0,0 79,0 79,0 0,0 0,-182 0,-182 0,0 -79,-0.5 -79,-0.5 z"
          id="path33"
          style="
            fill: none;
            fill-opacity: 1;
            stroke: #000000;
            stroke-width: 2;
            stroke-miterlimit: 4;
            stroke-dasharray: none;
            stroke-opacity: 1;
          "
        />
      </g>
    </g>
    <g
      opacity="1"
      id="g47"
      style="display: block"
      transform="matrix(0.26458333,0,0,0.26458333,125.80937,42.95267)"
    >
      <path
        stroke-linecap="butt"
        stroke-linejoin="miter"
        fill-opacity="0"
        stroke-miterlimit="4"
        stroke="#000000"
        stroke-opacity="1"
        stroke-width="2"
        d="m -325.5,-102.3408 c -38.5,0 -85.85501,7.509799 -111.25,31.0908 -21,19.5 -24,47.25 -24,65.25 0,18 6.12701,49.228001 31.75,70.5 26.5,22 67.25101,26 102.5,26 19.5,0 75.315,-5.967003 103,-27.5 C -192,38.5 -196,3 -196,3 c 0,0 -80.5,0.5 -80.5,0.5 0,0 0.5,25.5 -49.5,27.5 -63.5,0 -57.5,-37 -57.5,-37 0,0 -3.5,-37 55.5,-37 50.5,0 51,25.5 51,25.5 0,0 63.5,0 81,0 -0.5,-22.5 -8.5,-39.5 -27.5,-56 -19,-16.5 -60.5,-28.8408 -102,-28.8408 z"
        id="path45"
      />
    </g>
  </g>
</svg>
